<svg xmlns="http://www.w3.org/2000/svg" viewBox="0 0 512 512">
  <circle cx="256" cy="256" r="256" fill="#3fa9de"/>
  <path d="M256 140L130 244l155 156 227-1z" fill="#3296ca"/>
  <path d="M140 225h272v156H140z" fill="#324f6a"/>
  <path d="M180 225l76-62 76 62" fill="none" stroke="#c8d3de" stroke-width="7" stroke-linecap="round" stroke-linejoin="round"/>
  <circle cx="256" cy="145" r="16" fill="#df4c4d"/>
  <g fill="#ff7058">
    <path d="M171 305v-68c0-6 4-11 10-11s10 5 10 11v68c0 15-8 24-24 24-14 0-23-10-23-23v-10c0-6 5-10 10-10s10 4 10 10v10c0 3 1 5 3 7 2 1 4 2 7 2 5 0 7-3 7-10z"/>
    <path d="M259 337h-17c-13 0-23-10-23-23v-62c0-16 11-27 27-27h17c16 0 27 11 27 27v62c0 13-10 23-23 23zm-13-20h10c8 0 13-5 13-13v-54c0-8-5-13-13-13h-10c-8 0-13 5-13 13v54c0 8 5 13 13 13z"/>
    <path d="M322 337v-112h36c21 0 35 14 35 35 0 14-6 24-16 29 13 5 21 17 21 33 0 22-15 35-38 35zm20-68h13c10 0 17-6 17-16s-7-16-17-16h-13zm0 49h16c12 0 19-7 19-17s-7-17-19-17h-16z"/>
  </g>
</svg>
